<?xml version="1.0" standalone="no"?>
<!DOCTYPE svg PUBLIC "-//W3C//DTD SVG 20010904//EN"
 "http://www.w3.org/TR/2001/REC-SVG-20010904/DTD/svg10.dtd">
<svg version="1.0" xmlns="http://www.w3.org/2000/svg"
 width="583.000000pt" height="428.000000pt" viewBox="0 0 583.000000 428.000000"
 preserveAspectRatio="xMidYMid meet">

<g transform="translate(0.000000,428.000000) scale(0.100000,-0.100000)"
fill="#000000" stroke="none">
<path d="M2565 3420 c-4 -6 -11 -7 -17 -4 -6 4 -8 2 -5 -3 4 -6 0 -14 -9 -17
-8 -3 -12 -2 -9 4 3 6 -1 10 -11 10 -14 0 -16 -7 -11 -41 5 -39 4 -41 -31 -56
-165 -72 -273 -144 -393 -263 -328 -324 -441 -788 -299 -1223 44 -133 60 -162
90 -162 21 0 25 4 22 27 -2 19 2 28 17 33 31 9 15 35 -18 29 -23 -5 -28 -1
-39 28 -16 44 -16 45 8 51 11 3 20 12 20 21 0 12 -6 15 -25 10 -20 -5 -26 -1
-35 21 -15 39 -12 56 10 62 29 8 24 31 -7 35 -24 3 -28 8 -31 41 -3 32 0 37
17 37 15 0 21 6 21 21 0 15 -5 20 -22 17 -20 -3 -23 2 -26 40 l-3 42 70 0 c56
0 71 3 71 15 0 12 -14 15 -70 15 l-70 0 0 45 c0 41 2 45 25 45 30 0 34 25 4
33 -17 5 -20 12 -17 44 3 33 6 38 28 38 15 0 26 7 28 18 2 12 -3 17 -17 17
-23 0 -27 22 -11 65 8 21 14 24 35 19 32 -8 36 21 4 31 -13 4 -18 12 -15 22 3
8 9 26 12 39 6 22 11 24 35 19 33 -7 40 10 12 30 -14 11 -15 16 -3 44 7 17 16
34 21 36 4 3 34 -10 66 -29 32 -19 62 -31 67 -26 13 13 -2 28 -54 55 -27 14
-51 28 -54 33 -6 10 32 72 44 72 5 0 12 -4 15 -10 9 -14 35 -13 35 2 0 6 -7
19 -15 28 -14 16 -13 20 11 49 25 30 27 31 45 15 16 -14 22 -15 32 -5 9 10 8
15 -5 25 -24 17 -23 28 5 54 28 26 40 27 57 7 19 -23 35 -2 19 23 -12 18 -10
24 11 47 27 29 45 32 58 9 15 -26 35 -8 21 18 -10 19 -8 25 17 45 16 13 34 23
41 23 6 0 26 -27 45 -60 18 -33 36 -60 40 -60 16 0 7 31 -22 77 -16 26 -30 52
-30 58 0 11 61 45 80 45 5 0 12 -9 15 -20 9 -28 23 -16 18 15 -4 20 0 27 23
35 16 6 36 13 44 17 8 3 19 5 23 4 5 -1 5 4 2 10 -5 8 -10 8 -18 0 -18 -18
-23 -13 -23 23 0 19 4 32 8 30 3 -2 8 6 10 18 2 13 9 22 16 20 8 -1 11 2 8 7
-4 5 2 12 11 14 16 4 16 5 1 6 -9 0 -20 -4 -23 -9z"/>
<path d="M3360 3320 c0 -5 5 -10 11 -10 5 0 7 5 4 10 -3 6 -8 10 -11 10 -2 0
-4 -4 -4 -10z"/>
<path d="M3400 3295 c14 -17 13 -18 -2 -12 -10 3 -18 2 -18 -3 0 -6 8 -10 18
-10 12 0 14 -2 4 -8 -8 -5 -10 -16 -6 -27 6 -14 4 -16 -6 -10 -9 5 -11 4 -6
-4 10 -15 29 -3 22 15 -8 20 23 17 62 -6 32 -20 40 -38 23 -55 -14 -15 -51
-84 -51 -96 0 -19 19 2 50 56 17 30 37 55 43 55 7 0 25 -11 42 -24 25 -20 27
-26 16 -39 -20 -24 -3 -42 20 -21 17 16 20 16 44 0 33 -21 41 -42 25 -61 -19
-23 -4 -30 26 -14 24 13 28 12 51 -15 23 -27 23 -29 7 -47 -13 -15 -15 -22 -6
-31 9 -9 16 -7 31 6 18 16 20 15 45 -15 24 -29 25 -33 11 -49 -8 -9 -15 -22
-15 -29 0 -12 4 -12 47 6 11 4 43 -44 43 -65 0 -5 -25 -22 -55 -38 -30 -16
-55 -35 -55 -41 0 -20 19 -16 77 17 29 17 55 30 58 30 2 0 12 -14 20 -31 18
-34 14 -59 -11 -59 -8 0 -14 -6 -11 -12 2 -7 16 -13 31 -13 27 0 38 -11 50
-52 5 -16 2 -23 -14 -28 -30 -10 -26 -39 4 -31 29 7 32 4 41 -47 7 -33 5 -37
-14 -37 -14 0 -21 -6 -21 -20 0 -17 5 -19 24 -14 22 5 25 2 31 -29 8 -39 1
-57 -21 -57 -8 0 -14 -7 -14 -15 0 -9 9 -15 25 -15 23 0 25 -4 25 -45 l0 -45
-76 0 c-56 0 -75 -3 -72 -12 3 -9 30 -14 77 -16 l72 -3 -3 -42 c-2 -35 -7 -43
-25 -45 -28 -4 -30 -19 -3 -27 37 -12 23 -85 -16 -85 -29 0 -32 -26 -4 -33 22
-6 25 -23 10 -62 -9 -22 -15 -26 -35 -21 -31 8 -35 -18 -5 -34 18 -10 19 -13
7 -43 -11 -25 -19 -32 -42 -32 -34 0 -44 -21 -15 -30 17 -6 20 -12 15 -36 -5
-24 -3 -29 12 -29 31 0 43 15 74 90 114 281 113 607 -2 898 -61 153 -178 324
-296 431 -100 92 -271 201 -353 226 -23 7 -24 7 -10 -10z"/>
<path d="M2574 3279 c-3 -6 -2 -15 3 -20 5 -5 9 -1 9 11 0 23 -2 24 -12 9z"/>
<path d="M2579 3070 c-285 -112 -502 -368 -570 -670 -49 -223 -1 -516 115
-688 31 -47 31 -47 94 -50 34 -2 62 0 62 4 0 4 -15 30 -34 58 -52 79 -91 163
-117 251 -20 68 -24 102 -24 230 0 130 3 160 23 225 76 240 247 435 470 538
47 21 53 27 37 33 -11 4 -14 8 -6 8 10 1 11 4 2 15 -8 9 -8 16 -2 20 6 4 8 12
5 20 -3 7 5 18 18 24 46 22 1 11 -73 -18z"/>
<path d="M3263 3069 c9 -6 15 -14 12 -20 -4 -5 2 -9 12 -9 14 0 15 -2 4 -9
-11 -7 -11 -9 0 -14 10 -4 10 -6 2 -6 -16 -1 -17 -31 -1 -31 6 0 8 -3 5 -6 -4
-4 -13 -1 -21 5 -11 9 -16 9 -22 0 -4 -8 -3 -9 4 -5 7 4 12 3 12 -2 0 -5 15
-15 33 -23 126 -50 290 -211 366 -359 143 -279 131 -590 -34 -846 -49 -77 -47
-84 27 -84 40 0 50 4 67 28 37 53 90 169 117 258 24 79 27 105 28 239 0 123
-4 166 -22 238 -65 258 -229 471 -465 601 -37 21 -73 36 -80 33 -6 -2 -18 2
-25 10 -7 7 -19 13 -25 13 -7 0 -4 -5 6 -11z"/>
<path d="M2820 2939 c-178 -31 -354 -132 -462 -264 -63 -76 -134 -222 -153
-311 -19 -88 -19 -239 0 -329 20 -98 94 -242 159 -313 l54 -57 517 0 518 0 52
58 c62 68 114 162 147 267 20 64 23 95 22 215 0 123 -4 150 -27 220 -50 152
-159 301 -282 385 -66 45 -200 106 -264 119 -78 16 -217 22 -281 10z m130
-439 c8 -187 16 -280 25 -290 6 -8 15 -23 18 -33 4 -9 41 -33 82 -53 42 -20
74 -38 71 -41 -2 -3 -41 7 -85 22 -62 20 -84 24 -100 16 -30 -17 -48 -13 -73
13 -15 15 -44 27 -83 35 -33 6 -66 18 -74 26 -14 13 -5 15 71 15 56 0 89 4 95
13 8 9 33 424 33 536 0 13 2 22 4 20 2 -2 9 -128 16 -279z"/>
<path d="M2895 2196 c-22 -33 -5 -66 33 -66 49 0 69 42 36 74 -23 23 -51 20
-69 -8z"/>
<path d="M1730 2834 c-41 -14 -108 -31 -150 -38 l-75 -12 -3 -57 -3 -57 118 0
118 0 47 95 c26 53 42 95 35 94 -7 -1 -46 -12 -87 -25z"/>
<path d="M4041 2854 c3 -5 24 -48 49 -96 l44 -88 118 0 118 0 0 55 c0 52 -1
55 -27 60 -36 6 -251 60 -282 70 -13 5 -22 4 -20 -1z"/>
<path d="M1320 2560 c-17 -17 -20 -32 -19 -102 1 -56 4 -72 8 -48 3 19 11 35
16 35 6 1 23 4 39 8 19 5 32 4 36 -3 5 -8 10 -2 14 13 11 45 71 47 82 2 4 -16
11 -22 22 -18 10 4 13 2 8 -5 -5 -8 -2 -10 8 -6 9 3 13 10 10 15 -3 5 -1 9 5
9 6 0 13 -12 17 -27 10 -49 12 -49 13 -2 1 48 14 69 43 69 20 0 38 -28 39 -62
0 -13 6 2 13 32 7 30 16 67 21 83 l7 27 -181 0 c-168 0 -182 -1 -201 -20z"/>
<path d="M4170 2572 c0 -4 5 -23 11 -42 6 -19 13 -55 16 -80 7 -58 13 -64 13
-14 0 67 43 86 86 38 13 -14 29 -22 34 -19 6 3 10 1 10 -5 0 -6 5 -8 10 -5 6
3 10 -2 11 -12 0 -11 3 -13 6 -5 3 7 -1 20 -8 30 -7 9 -9 14 -5 10 5 -5 15 1
23 12 8 11 23 20 33 20 19 0 62 -38 56 -49 -2 -3 18 -4 45 -3 38 3 50 8 55 24
9 31 -5 87 -26 98 -22 12 -370 14 -370 2z"/>
<path d="M1302 1969 c-3 -157 -15 -149 217 -149 l183 0 -7 28 c-5 15 -14 52
-21 82 -7 30 -13 45 -13 32 -2 -52 -40 -79 -69 -50 -7 7 -12 41 -13 77 0 46
-3 60 -9 46 -5 -11 -9 -16 -9 -11 -1 5 -7 3 -15 -3 -10 -8 -16 -9 -21 -1 -14
23 -25 7 -25 -39 0 -70 -37 -103 -74 -65 -11 10 -16 34 -16 69 0 39 -4 53 -12
50 -7 -2 -30 -6 -50 -9 -35 -5 -37 -4 -41 27 -2 17 -5 -20 -5 -84z"/>
<path d="M4295 1987 c-2 -12 -6 -33 -7 -46 -2 -13 -11 -29 -20 -35 -28 -17
-52 5 -57 50 -3 38 -4 38 -16 -21 -7 -33 -16 -72 -20 -87 l-7 -28 185 0 c181
0 186 1 201 22 16 22 21 102 10 143 -4 17 -13 20 -52 19 -46 -1 -47 -2 -53
-37 -14 -88 -89 -93 -89 -6 0 24 -5 39 -15 43 -8 3 -15 0 -15 -7 0 -7 -3 -8
-8 -2 -13 19 -32 15 -37 -8z"/>
<path d="M1502 1698 l3 -33 120 -2 c66 0 123 1 127 3 4 3 2 18 -4 34 l-10 30
-120 0 -119 0 3 -32z"/>
<path d="M4122 1705 c-7 -14 -12 -29 -12 -34 0 -6 217 -8 253 -2 4 0 7 15 7
31 l0 30 -118 0 c-118 0 -119 0 -130 -25z"/>
<path d="M2009 1679 l-24 -21 25 6 c14 3 31 6 38 6 6 0 12 7 12 15 0 21 -24
19 -51 -6z"/>
<path d="M3810 1686 c0 -8 13 -16 30 -18 37 -6 39 5 5 20 -33 15 -35 15 -35
-2z"/>
<path d="M470 1613 c0 -5 78 -202 172 -440 l173 -432 765 1 c421 1 717 4 658
5 -87 3 -108 7 -108 18 0 12 26 15 153 17 83 2 -203 5 -638 8 l-790 5 -152
375 c-83 206 -152 381 -152 388 -1 9 161 12 779 12 736 0 780 1 781 18 0 14 2
14 8 -3 8 -19 9 -18 13 5 5 23 5 23 7 3 1 -22 31 -34 31 -12 0 5 -5 7 -12 3
-7 -5 -9 -2 -5 9 3 9 0 18 -8 21 -23 8 -1675 7 -1675 -1z"/>
<path d="M2170 1609 c0 -5 5 -7 10 -4 6 3 10 8 10 11 0 2 -4 4 -10 4 -5 0 -10
-5 -10 -11z"/>
<path d="M3821 1611 c-11 -7 -11 -9 0 -14 11 -4 12 -7 1 -15 -9 -6 -1 -9 25
-10 20 -1 41 4 45 11 6 9 8 9 8 0 0 -10 148 -13 704 -13 388 0 707 -4 710 -8
3 -4 -64 -179 -148 -388 l-153 -379 -729 -5 c-401 -3 -661 -6 -579 -8 140 -2
203 -12 165 -26 -8 -3 -55 -7 -105 -9 -49 -2 220 -3 599 -2 l689 0 44 110
c185 458 303 754 303 759 0 4 -346 6 -769 6 l-770 0 -6 -22 c-6 -16 -9 -17
-15 -7 -5 7 -6 17 -4 21 7 10 3 10 -15 -1z"/>
<path d="M2185 1580 c3 -5 11 -10 16 -10 6 0 7 5 4 10 -3 6 -11 10 -16 10 -6
0 -7 -4 -4 -10z"/>
<path d="M690 1460 c0 -6 4 -18 10 -28 5 -9 25 -52 44 -94 l35 -78 94 0 94 0
7 39 c3 21 14 49 24 62 18 22 26 23 177 25 87 1 168 -2 181 -6 14 -6 26 -6 29
0 3 5 86 8 185 7 150 -2 182 -5 195 -18 15 -15 19 -15 53 2 41 21 152 26 198
8 21 -7 34 -7 50 2 15 8 55 9 131 5 59 -3 117 -7 128 -7 11 -1 40 2 64 6 24 4
81 4 127 0 l83 -7 3 -56 3 -57 85 0 85 0 5 55 5 55 60 8 c33 4 85 6 115 2 53
-5 94 -6 350 -5 63 0 118 -4 122 -8 4 -4 8 -29 10 -57 l3 -50 57 -3 57 -3 7
61 7 60 58 0 59 0 0 -48 c0 -26 5 -53 12 -60 15 -15 104 -16 113 -2 4 6 8 31
10 56 2 26 6 49 10 52 3 3 58 5 123 4 93 -1 119 -5 128 -17 10 -14 12 -14 18
0 7 19 136 22 136 3 0 -9 3 -9 12 0 7 7 42 12 88 12 71 0 78 -2 90 -25 17 -31
23 -31 53 0 22 25 27 25 182 30 88 2 176 1 195 -3 35 -8 35 -8 38 -65 l3 -58
92 3 92 3 42 85 c23 47 42 93 42 103 1 16 -112 17 -2239 17 -1507 0 -2240 -3
-2240 -10z"/>
<path d="M3602 1132 l-2 -153 93 3 c91 3 92 3 92 28 0 24 -3 25 -62 28 l-63 3
-1 107 c-1 59 -4 96 -8 82 -11 -40 -35 -31 -42 15 -3 22 -7 -29 -7 -113z"/>
<path d="M3398 1238 c-2 -27 -7 -33 -25 -32 -23 1 -23 -2 -23 -113 l0 -113 90
0 90 0 0 30 c0 30 0 30 -59 30 l-58 0 -7 69 c-3 38 -3 89 0 115 4 25 4 46 1
46 -3 0 -7 -15 -9 -32z"/>
<path d="M1060 1240 c-6 -30 -36 -39 -43 -13 -3 10 -5 0 -6 -22 -1 -54 12 -65
76 -65 l53 0 0 -50 0 -50 -65 0 -65 0 0 -30 0 -30 84 0 c59 0 87 4 95 14 8 9
11 46 9 103 l-3 88 -53 1 c-60 1 -69 7 -74 49 -4 28 -4 29 -8 5z"/>
<path d="M2022 1234 c-1 -12 -10 -28 -19 -35 -14 -12 -16 -12 -11 2 4 10 1 16
-8 16 -11 0 -14 -19 -14 -89 l0 -88 -39 0 c-38 0 -38 0 -45 46 -3 26 -6 68 -7
93 0 25 -3 40 -6 34 -7 -19 -31 -16 -36 5 -3 9 -5 -23 -6 -73 -1 -49 -4 -99
-7 -111 -10 -39 19 -54 105 -54 55 0 82 4 90 14 8 9 11 54 8 137 -1 68 -4 114
-5 103z"/>
<path d="M3970 1231 c0 -24 -29 -37 -31 -13 -3 34 -17 -95 -18 -165 l-1 -73
30 0 30 0 0 135 c0 74 -2 135 -5 135 -3 0 -5 -9 -5 -19z"/>
<path d="M4141 1118 l-1 -138 30 0 30 0 -1 133 c-1 72 -3 125 -6 116 -2 -10
-13 -19 -23 -22 -14 -4 -20 1 -23 22 -2 14 -5 -36 -6 -111z"/>
<path d="M4691 1118 l-1 -138 89 0 c83 0 89 1 94 22 9 33 1 38 -64 38 l-59 0
0 50 0 50 50 0 c47 0 50 2 50 26 0 23 -3 25 -37 24 -60 -3 -63 -2 -63 28 -1
27 -1 27 -13 5 -14 -25 -32 -19 -40 12 -2 11 -5 -42 -6 -117z"/>
<path d="M1320 1214 c0 -16 -4 -24 -8 -19 -19 26 -32 13 -32 -32 0 -27 -3 -71
-6 -99 -9 -72 6 -84 105 -84 46 0 82 5 89 12 8 8 12 51 12 128 0 63 -4 110 -8
104 -14 -20 -41 -24 -45 -6 -3 9 -5 -27 -6 -81 l-1 -98 -40 3 -40 3 -5 94 c-4
87 -15 141 -15 75z"/>
<path d="M1699 1210 c-4 -33 -6 -35 -46 -38 -42 -3 -49 3 -43 33 1 5 -2 7 -5
3 -4 -4 -16 -3 -25 2 -24 13 -30 -11 -30 -132 l0 -98 30 0 c29 0 29 0 32 68
l3 67 65 5 65 5 2 55 c1 30 -1 47 -4 38 -7 -26 -31 -22 -36 5 -2 16 -5 13 -8
-13z"/>
<path d="M2148 1223 c-7 -27 -27 -31 -29 -5 -3 35 -17 -95 -18 -165 l-1 -73
30 0 30 0 0 80 c0 44 4 80 9 80 4 0 24 -36 44 -80 34 -75 38 -80 67 -80 16 0
30 5 30 10 0 6 -13 37 -30 70 -36 71 -36 73 -7 85 14 6 23 21 25 38 3 26 2 27
-17 18 -17 -9 -20 -8 -24 12 l-4 22 -2 -22 c-1 -24 -4 -25 -46 -25 -42 0 -44
1 -47 30 -3 25 -4 26 -10 5z"/>
<path d="M2447 1121 c-4 -70 -3 -129 2 -134 10 -10 57 -6 54 6 -2 4 -3 60 -4
125 0 64 -3 111 -6 105 -7 -19 -31 -16 -35 5 -2 9 -7 -39 -11 -107z"/>
<path d="M3071 1125 c-1 -82 3 -125 11 -133 14 -14 156 -16 176 -3 15 9 17 29
14 143 -2 71 -3 76 -22 71 -12 -3 -21 0 -22 8 -1 8 -4 -26 -7 -76 l-6 -90 -42
-3 -43 -3 0 73 c0 77 -6 94 -30 93 -8 0 -18 9 -22 20 -3 11 -6 -34 -7 -100z"/>
<path d="M4347 1234 c-4 -4 -7 -17 -7 -28 0 -17 -2 -18 -10 -6 -5 8 -10 11
-10 5 0 -5 -4 -3 -10 5 -16 25 -21 -8 -18 -121 l3 -104 30 0 29 0 1 105 c0 58
4 107 10 110 5 3 15 -26 21 -65 7 -38 17 -89 23 -113 12 -42 13 -43 48 -40 40
3 37 -4 73 171 6 31 16 57 21 57 5 0 9 -51 9 -115 l0 -115 30 0 30 0 0 89 c0
103 -9 159 -21 139 -7 -10 -12 -8 -24 10 -20 27 -32 28 -40 2 -8 -25 -32 -26
-37 -2 -2 9 -9 -14 -17 -51 -8 -40 -18 -66 -24 -64 -7 2 -18 27 -27 55 -8 28
-19 54 -23 59 -4 4 -5 0 -1 -10 9 -24 -1 -21 -29 8 -13 14 -26 22 -30 19z"/>
<path d="M2819 1133 c-2 -51 -3 -105 -3 -120 -1 -25 3 -28 29 -28 l30 0 0 75
0 75 50 5 c42 4 50 8 50 25 0 17 -7 20 -43 21 -23 0 -48 6 -54 12 -16 16 -38
15 -39 0 0 -7 -4 -4 -9 7 -6 13 -9 -10 -11 -72z"/>
</g>
</svg>
